<?xml version="1.0" encoding="utf-8" ?>
<svg baseProfile="full" height="35" version="1.1" width="50" xmlns="http://www.w3.org/2000/svg" xmlns:ev="http://www.w3.org/2001/xml-events" xmlns:xlink="http://www.w3.org/1999/xlink"><defs /><path d="M 14,0 L 10,4 L 10,5 L 9,6 L 9,7 L 8,8 L 8,10 L 7,11 L 7,12 L 6,13 L 5,13 L 4,12 L 3,12 L 2,11 L 0,11 L 0,14 L 2,14 L 3,15 L 5,15 L 6,16 L 5,17 L 6,18 L 5,19 L 4,19 L 3,20 L 0,20 L 0,23 L 1,23 L 2,22 L 5,22 L 6,23 L 6,25 L 7,26 L 7,27 L 8,28 L 8,29 L 9,30 L 10,30 L 12,32 L 13,32 L 14,33 L 16,33 L 17,34 L 32,34 L 33,33 L 34,33 L 35,32 L 36,32 L 37,31 L 38,31 L 42,27 L 42,25 L 43,24 L 43,23 L 44,22 L 47,22 L 48,23 L 49,23 L 49,20 L 46,20 L 45,19 L 44,19 L 43,18 L 44,17 L 43,16 L 44,15 L 46,15 L 47,14 L 48,14 L 49,13 L 49,11 L 46,11 L 45,12 L 44,12 L 43,11 L 44,10 L 44,9 L 45,8 L 45,7 L 47,5 L 47,3 L 46,4 L 27,4 L 26,5 L 19,5 L 18,4 L 18,3 L 17,2 L 17,1 L 16,0 Z" fill="black" /></svg>